<?xml version="1.0" encoding="utf-8"?>
<!-- Generator: Adobe Illustrator 16.0.0, SVG Export Plug-In . SVG Version: 6.00 Build 0)  -->
<!DOCTYPE svg PUBLIC "-//W3C//DTD SVG 1.1//EN" "http://www.w3.org/Graphics/SVG/1.1/DTD/svg11.dtd">
<svg version="1.1" id="Layer_1" xmlns="http://www.w3.org/2000/svg" xmlns:xlink="http://www.w3.org/1999/xlink" x="0px" y="0px"
	 width="60px" height="60px" viewBox="0 0 60 60" enable-background="new 0 0 60 60" xml:space="preserve">
<linearGradient id="SVGID_1_" gradientUnits="userSpaceOnUse" x1="32.0938" y1="40.3643" x2="48.4414" y2="40.3643">
	<stop  offset="0" style="stop-color:#79C143"/>
	<stop  offset="0.1869" style="stop-color:#9ACA3C"/>
	<stop  offset="0.3874" style="stop-color:#B5D334"/>
	<stop  offset="0.5898" style="stop-color:#C8DA2C"/>
	<stop  offset="0.7934" style="stop-color:#D3DE25"/>
	<stop  offset="1" style="stop-color:#D7DF23"/>
</linearGradient>
<path fill="url(#SVGID_1_)" stroke="#00A651" stroke-miterlimit="10" d="M48.441,24.784c-4.275,12.058-16.088,30.753-16.348,31.162
	c0.109-0.305,4.236-11.896,5.205-24.102C42.139,31.635,46.305,28.831,48.441,24.784z"/>
<linearGradient id="SVGID_2_" gradientUnits="userSpaceOnUse" x1="49.9307" y1="17.9966" x2="49.9639" y2="17.9966">
	<stop  offset="0" style="stop-color:#79C143"/>
	<stop  offset="0.1869" style="stop-color:#9ACA3C"/>
	<stop  offset="0.3874" style="stop-color:#B5D334"/>
	<stop  offset="0.5898" style="stop-color:#C8DA2C"/>
	<stop  offset="0.7934" style="stop-color:#D3DE25"/>
	<stop  offset="1" style="stop-color:#D7DF23"/>
</linearGradient>
<path fill="url(#SVGID_2_)" stroke="#00A651" stroke-miterlimit="10" d="M49.964,17.976c0,0.102,0,0.208-0.005,0.315
	c-0.002-0.2-0.011-0.396-0.028-0.59C49.953,17.788,49.964,17.879,49.964,17.976z"/>
<linearGradient id="SVGID_3_" gradientUnits="userSpaceOnUse" x1="27.3418" y1="27.9785" x2="46.084" y2="9.2363">
	<stop  offset="0" style="stop-color:#79C143"/>
	<stop  offset="0.1869" style="stop-color:#9ACA3C"/>
	<stop  offset="0.3874" style="stop-color:#B5D334"/>
	<stop  offset="0.5898" style="stop-color:#C8DA2C"/>
	<stop  offset="0.7934" style="stop-color:#D3DE25"/>
	<stop  offset="1" style="stop-color:#D7DF23"/>
</linearGradient>
<path fill="url(#SVGID_3_)" stroke="#00A651" stroke-miterlimit="10" d="M49.964,18.607c0,2.229-0.55,4.325-1.522,6.168
	c0,0.003,0,0.006,0,0.009c-2.137,4.047-6.303,6.851-11.143,7.06c-0.194,0.01-0.389,0.016-0.587,0.016
	c-7.318,0-13.252-5.933-13.252-13.252c0-7.319,5.934-13.252,13.252-13.252c7.015,0,12.757,5.449,13.219,12.345
	c0.018,0.196,0.022,0.393,0.028,0.592C49.961,18.396,49.964,18.502,49.964,18.607z"/>
<circle fill="#00A651" cx="36.71" cy="18.607" r="6.508"/>
</svg>
